<svg width="75" height="60" viewBox="0 0 75 60" fill="none" xmlns="http://www.w3.org/2000/svg">
<g filter="url(#filter0_d_18_87)">
<path d="M16.1868 51.8571V48.4077C16.1868 47.0854 15.3819 46.223 14.0021 46.223C13.3122 46.223 12.5648 46.453 12.0474 47.2003C11.645 46.5679 11.0701 46.223 10.2077 46.223C9.63278 46.223 9.05787 46.3955 8.59794 47.0279V46.338H7.39062V51.8571H8.59794V48.8101C8.59794 47.8327 9.11536 47.3728 9.92023 47.3728C10.7251 47.3728 11.1275 47.8902 11.1275 48.8101V51.8571H12.3349V48.8101C12.3349 47.8327 12.9098 47.3728 13.6572 47.3728C14.462 47.3728 14.8645 47.8902 14.8645 48.8101V51.8571H16.1868ZM34.0665 46.338H32.1118V44.6707H30.9045V46.338H29.8122V47.4303H30.9045V49.9599C30.9045 51.2247 31.4219 51.9721 32.8017 51.9721C33.3191 51.9721 33.894 51.7996 34.2965 51.5697L33.9515 50.5348C33.6066 50.7648 33.2041 50.8223 32.9167 50.8223C32.3418 50.8223 32.1118 50.4773 32.1118 49.9024V47.4303H34.0665V46.338ZM44.2999 46.223C43.61 46.223 43.1501 46.5679 42.8626 47.0279V46.338H41.6553V51.8571H42.8626V48.7526C42.8626 47.8328 43.2651 47.3153 44.0125 47.3153C44.2424 47.3153 44.5299 47.3728 44.7599 47.4303L45.1048 46.2805C44.8748 46.223 44.5299 46.223 44.2999 46.223ZM28.8348 46.7979C28.2599 46.3955 27.455 46.223 26.5927 46.223C25.2129 46.223 24.293 46.9129 24.293 48.0052C24.293 48.9251 24.9829 49.4425 26.1902 49.615L26.7651 49.6725C27.3975 49.7874 27.7425 49.9599 27.7425 50.2474C27.7425 50.6498 27.2825 50.9373 26.4777 50.9373C25.6728 50.9373 25.0404 50.6498 24.638 50.3624L24.0631 51.2822C24.6955 51.7421 25.5578 51.9721 26.4202 51.9721C28.0299 51.9721 28.9498 51.2247 28.9498 50.1899C28.9498 49.2125 28.2024 48.6951 27.0526 48.5226L26.4777 48.4652C25.9602 48.4077 25.5578 48.2927 25.5578 47.9477C25.5578 47.5453 25.9603 47.3153 26.5927 47.3153C27.2826 47.3153 27.9724 47.6028 28.3174 47.7753L28.8348 46.7979ZM60.9149 46.223C60.225 46.223 59.765 46.5679 59.4776 47.0279V46.338H58.2703V51.8571H59.4776V48.7526C59.4776 47.8328 59.88 47.3153 60.6274 47.3153C60.8574 47.3153 61.1448 47.3728 61.3748 47.4303L61.7197 46.2805C61.4898 46.223 61.1448 46.223 60.9149 46.223ZM45.5072 49.0975C45.5072 50.7648 46.6571 51.9721 48.4393 51.9721C49.2442 51.9721 49.8191 51.7996 50.394 51.3397L49.8191 50.3624C49.3591 50.7073 48.8992 50.8798 48.3818 50.8798C47.4044 50.8798 46.7146 50.1899 46.7146 49.0975C46.7146 48.0627 47.4044 47.3728 48.3818 47.3153C48.8992 47.3153 49.3591 47.4878 49.8191 47.8327L50.394 46.8554C49.8191 46.3955 49.2442 46.223 48.4393 46.223C46.6571 46.223 45.5072 47.4303 45.5072 49.0975ZM56.6605 49.0975V46.338H55.4532V47.0279C55.0508 46.5105 54.4759 46.223 53.7285 46.223C52.1762 46.223 50.9689 47.4303 50.9689 49.0975C50.9689 50.7648 52.1762 51.9721 53.7285 51.9721C54.5333 51.9721 55.1083 51.6846 55.4532 51.1672V51.8571H56.6605V49.0975ZM52.2337 49.0975C52.2337 48.1202 52.8661 47.3153 53.9009 47.3153C54.8783 47.3153 55.5682 48.0627 55.5682 49.0975C55.5682 50.0749 54.8783 50.8798 53.9009 50.8798C52.8661 50.8223 52.2337 50.0749 52.2337 49.0975ZM37.8034 46.223C36.1937 46.223 35.0439 47.3728 35.0439 49.0975C35.0439 50.8223 36.1937 51.9721 37.8609 51.9721C38.6658 51.9721 39.4707 51.7421 40.1031 51.2247L39.5282 50.3624C39.0682 50.7073 38.4933 50.9373 37.9184 50.9373C37.171 50.9373 36.4236 50.5923 36.2512 49.615H40.333C40.333 49.4425 40.333 49.3275 40.333 49.155C40.3905 47.3728 39.3557 46.223 37.8034 46.223ZM37.8034 47.2578C38.5508 47.2578 39.0682 47.7178 39.1832 48.5801H36.3087C36.4236 47.8327 36.9411 47.2578 37.8034 47.2578ZM67.7563 49.0975V44.1533H66.549V47.0279C66.1465 46.5105 65.5716 46.223 64.8243 46.223C63.272 46.223 62.0647 47.4303 62.0647 49.0975C62.0647 50.7648 63.272 51.9721 64.8243 51.9721C65.6291 51.9721 66.204 51.6846 66.549 51.1672V51.8571H67.7563V49.0975ZM63.3295 49.0975C63.3295 48.1202 63.9619 47.3153 64.9967 47.3153C65.9741 47.3153 66.664 48.0627 66.664 49.0975C66.664 50.0749 65.9741 50.8798 64.9967 50.8798C63.9619 50.8223 63.3295 50.0749 63.3295 49.0975ZM22.9707 49.0975V46.338H21.7634V47.0279C21.361 46.5105 20.7861 46.223 20.0387 46.223C18.4864 46.223 17.2791 47.4303 17.2791 49.0975C17.2791 50.7648 18.4864 51.9721 20.0387 51.9721C20.8435 51.9721 21.4185 51.6846 21.7634 51.1672V51.8571H22.9707V49.0975ZM18.4864 49.0975C18.4864 48.1202 19.1188 47.3153 20.1536 47.3153C21.131 47.3153 21.8209 48.0627 21.8209 49.0975C21.8209 50.0749 21.131 50.8798 20.1536 50.8798C19.1188 50.8223 18.4864 50.0749 18.4864 49.0975Z" fill="black"/>
<path d="M46.5411 4.42676H28.4314V36.9667H46.5411V4.42676Z" fill="#FF5F00"/>
<path d="M29.5826 20.6968C29.5826 14.0853 32.6871 8.22124 37.4589 4.42682C33.9519 1.66725 29.5251 0 24.6958 0C13.2551 0 3.99902 9.25607 3.99902 20.6968C3.99902 32.1375 13.2551 41.3936 24.6958 41.3936C29.5251 41.3936 33.9519 39.7264 37.4589 36.9668C32.6871 33.2299 29.5826 27.3083 29.5826 20.6968Z" fill="#EB001B"/>
<path d="M70.9768 20.6968C70.9768 32.1375 61.7208 41.3936 50.28 41.3936C45.4508 41.3936 41.024 39.7264 37.517 36.9668C42.3463 33.1724 45.3933 27.3083 45.3933 20.6968C45.3933 14.0853 42.2888 8.22124 37.517 4.42682C41.024 1.66725 45.4508 0 50.28 0C61.7208 0 70.9768 9.31356 70.9768 20.6968Z" fill="#F79E1B"/>
</g>
<defs>
<filter id="filter0_d_18_87" x="-0.000976562" y="0" width="74.9778" height="59.972" filterUnits="userSpaceOnUse" color-interpolation-filters="sRGB">
<feFlood flood-opacity="0" result="BackgroundImageFix"/>
<feColorMatrix in="SourceAlpha" type="matrix" values="0 0 0 0 0 0 0 0 0 0 0 0 0 0 0 0 0 0 127 0" result="hardAlpha"/>
<feOffset dy="4"/>
<feGaussianBlur stdDeviation="2"/>
<feComposite in2="hardAlpha" operator="out"/>
<feColorMatrix type="matrix" values="0 0 0 0 0 0 0 0 0 0 0 0 0 0 0 0 0 0 0.25 0"/>
<feBlend mode="normal" in2="BackgroundImageFix" result="effect1_dropShadow_18_87"/>
<feBlend mode="normal" in="SourceGraphic" in2="effect1_dropShadow_18_87" result="shape"/>
</filter>
</defs>
</svg>
